HIERARCHY
ROOT hip
{
  OFFSET 0 0 0
  CHANNELS 6 Xposition Yposition Zposition Zrotation Yrotation Xrotation
  JOINT abdomen
  {
    OFFSET 0 20.6881 -0.73152
    CHANNELS 3 Zrotation Xrotation Yrotation
    JOINT chest
    {
      OFFSET 0 11.7043 -0.48768
      CHANNELS 3 Zrotation Xrotation Yrotation
      JOINT neck
      {
        OFFSET 0 22.1894 -2.19456
        CHANNELS 3 Zrotation Xrotation Yrotation
        JOINT head
        {
          OFFSET -0.24384 7.07133 1.2192
          CHANNELS 3 Zrotation Xrotation Yrotation
          JOINT leftEye
          {
            OFFSET 4.14528 8.04674 8.04672
            CHANNELS 3 Zrotation Xrotation Yrotation
            End Site
            {
              OFFSET 1 0 0
            }
          }
          JOINT rightEye
          {
            OFFSET -3.6576 8.04674 8.04672
            CHANNELS 3 Zrotation Xrotation Yrotation
            End Site
            {
              OFFSET 1 0 0
            }
          }
        }
      }
      JOINT rCollar
      {
        OFFSET -2.68224 19.2634 -4.8768
        CHANNELS 3 Zrotation Xrotation Yrotation
        JOINT rShldr
        {
          OFFSET -8.77824 -1.95073 1.46304
          CHANNELS 3 Zrotation Xrotation Yrotation
          JOINT rForeArm
          {
            OFFSET -28.1742 -1.7115 0.48768
            CHANNELS 3 Zrotation Xrotation Yrotation
            JOINT rHand
            {
              OFFSET -22.5879 0.773209 7.07136
              CHANNELS 3 Zrotation Xrotation Yrotation
              JOINT rThumb1
              {
                OFFSET -1.2192 -0.487915 3.41376
                CHANNELS 3 Zrotation Xrotation Yrotation
                JOINT rThumb2
                {
                  OFFSET -3.37035 -0.52449 3.41376
                  CHANNELS 3 Zrotation Xrotation Yrotation
                  End Site
                  {
                    OFFSET -1.78271 -1.18214 1.43049
                  }
                }
              }
              JOINT rIndex1
              {
                OFFSET -7.75947 0.938293 5.60832
                CHANNELS 3 Zrotation Xrotation Yrotation
                JOINT rIndex2
                {
                  OFFSET -2.54057 -0.884171 1.56538
                  CHANNELS 3 Zrotation Xrotation Yrotation
                  End Site
                  {
                    OFFSET -1.62519 -0.234802 1.16502
                  }
                }
              }
              JOINT rMid1
              {
                OFFSET -8.24714 1.18213 3.41376
                CHANNELS 3 Zrotation Xrotation Yrotation
                JOINT rMid2
                {
                  OFFSET -3.10165 -0.590103 1.0647
                  CHANNELS 3 Zrotation Xrotation Yrotation
                  End Site
                  {
                    OFFSET -2.48547 -0.328903 0.83742
                  }
                }
              }
              JOINT rRing1
              {
                OFFSET -8.82822 0.546677 1.51678
                CHANNELS 3 Zrotation Xrotation Yrotation
                JOINT rRing2
                {
                  OFFSET -2.60934 -0.819778 -0.0198488
                  CHANNELS 3 Zrotation Xrotation Yrotation
                  End Site
                  {
                    OFFSET -2.33842 -0.294052 0.168128
                  }
                }
              }
              JOINT rPinky1
              {
                OFFSET -8.27202 -0.0477905 -0.4584
                CHANNELS 3 Zrotation Xrotation Yrotation
                JOINT rPinky2
                {
                  OFFSET -1.82734 -0.647385 -0.700984
                  CHANNELS 3 Zrotation Xrotation Yrotation
                  End Site
                  {
                    OFFSET -1.69225 -0.51767 -0.607171
                  }
                }
              }
            }
          }
        }
      }
      JOINT lCollar
      {
        OFFSET 2.68224 19.2634 -4.8768
        CHANNELS 3 Zrotation Xrotation Yrotation
        JOINT lShldr
        {
          OFFSET 8.77824 -1.95073 1.46304
          CHANNELS 3 Zrotation Xrotation Yrotation
          JOINT lForeArm
          {
            OFFSET 28.1742 -1.7115 0.48768
            CHANNELS 3 Zrotation Xrotation Yrotation
            JOINT lHand
            {
              OFFSET 22.5879 0.773209 7.07136
              CHANNELS 3 Zrotation Xrotation Yrotation
              JOINT lThumb1
              {
                OFFSET 1.2192 -0.487915 3.41376
                CHANNELS 3 Zrotation Xrotation Yrotation
                JOINT lThumb2
                {
                  OFFSET 3.37035 -0.52449 3.41376
                  CHANNELS 3 Zrotation Xrotation Yrotation
                  End Site
                  {
                    OFFSET 1.78271 -1.18214 1.43049
                  }
                }
              }
              JOINT lIndex1
              {
                OFFSET 7.75947 0.938293 5.60832
                CHANNELS 3 Zrotation Xrotation Yrotation
                JOINT lIndex2
                {
                  OFFSET 2.54057 -0.884171 1.56538
                  CHANNELS 3 Zrotation Xrotation Yrotation
                  End Site
                  {
                    OFFSET 1.62519 -0.234802 1.16502
                  }
                }
              }
              JOINT lMid1
              {
                OFFSET 8.24714 1.18213 3.41376
                CHANNELS 3 Zrotation Xrotation Yrotation
                JOINT lMid2
                {
                  OFFSET 3.10165 -0.590103 1.0647
                  CHANNELS 3 Zrotation Xrotation Yrotation
                  End Site
                  {
                    OFFSET 2.48547 -0.328903 0.83742
                  }
                }
              }
              JOINT lRing1
              {
                OFFSET 8.82822 0.546677 1.51678
                CHANNELS 3 Zrotation Xrotation Yrotation
                JOINT lRing2
                {
                  OFFSET 2.60934 -0.819778 -0.0198488
                  CHANNELS 3 Zrotation Xrotation Yrotation
                  End Site
                  {
                    OFFSET 2.33842 -0.294052 0.168128
                  }
                }
              }
              JOINT lPinky1
              {
                OFFSET 8.27202 -0.0477905 -0.4584
                CHANNELS 3 Zrotation Xrotation Yrotation
                JOINT lPinky2
                {
                  OFFSET 1.82734 -0.647385 -0.700984
                  CHANNELS 3 Zrotation Xrotation Yrotation
                  End Site
                  {
                    OFFSET 1.69225 -0.51767 -0.607171
                  }
                }
              }
            }
          }
        }
      }
    }
  }
  JOINT rButtock
  {
    OFFSET -8.77824 4.35084 1.2192
    CHANNELS 3 Zrotation Xrotation Yrotation
    JOINT rThigh
    {
      OFFSET 0 -1.70687 -2.19456
      CHANNELS 3 Zrotation Xrotation Yrotation
      JOINT rShin
      {
        OFFSET 0 -36.8199 0.73152
        CHANNELS 3 Zrotation Xrotation Yrotation
        JOINT rFoot
        {
          OFFSET 0.73152 -45.1104 -5.12064
          CHANNELS 3 Zrotation Xrotation Yrotation
          End Site
          {
            OFFSET -1.1221 -3.69964 12.103
          }
        }
      }
    }
  }
  JOINT lButtock
  {
    OFFSET 8.77824 4.35084 1.2192
    CHANNELS 3 Zrotation Xrotation Yrotation
    JOINT lThigh
    {
      OFFSET 0 -1.70687 -2.19456
      CHANNELS 3 Zrotation Xrotation Yrotation
      JOINT lShin
      {
        OFFSET 0 -36.8199 0.73152
        CHANNELS 3 Zrotation Xrotation Yrotation
        JOINT lFoot
        {
          OFFSET -0.73152 -45.1104 -5.12064
          CHANNELS 3 Zrotation Xrotation Yrotation
          End Site
          {
            OFFSET 1.1221 -3.69964 12.103
          }
        }
      }
    }
  }
}
MOTION
Frames: 4
Frame Time:	0.06666666
-48.2147 85.0114 -193.1 0.0 0.0 0.0 0.0256065 -6.19238e-06 0.000728843 0.00706482 8.63049e-06 0.00122383 6.76942e-16 0.0 1.28123e-17 2.03133e-15 3.18055e-15 3.88251e-17 -0.0 0.0 0.0 -0.0 0.0 0.0 3.96254e-16 -3.88251e-19 1.49089e-16 9.5207e-15 -2.91965e-16 1.19271e-15 1.24489e-13 -3.51849e-14 2.22639e-14 1.4011e-12 4.10242e-14 6.36111e-15 3.30735e-12 1.73049e-14 6.67917e-14 5.70472e-12 2.8625e-14 1.07344e-13 3.31533e-12 1.94809e-14 5.40694e-14 7.73091 5.47488 0.417314 3.30798e-12 1.73937e-14 6.67917e-14 2.90554 0.965183 0.102902 3.3168e-12 1.70955e-14 6.52014e-14 10.2786 0.731801 0.0259123 3.304e-12 1.90833e-14 6.99722e-14 2.22167 -0.733487 -0.20892 2.99514e-16 -1.94126e-19 -1.49089e-16 4.79801e-15 -1.80149e-16 -7.95139e-16 1.23495e-13 3.83654e-14 -2.54444e-14 1.40055e-12 -2.84759e-14 6.36111e-14 3.30819e-12 2.42621e-14 6.36111e-14 5.72102e-12 4.13472e-14 1.13705e-13 3.30221e-12 2.46493e-14 7.31528e-14 -7.73091 5.47488 -0.417314 3.30852e-12 2.44505e-14 6.04305e-14 -2.90554 0.965183 -0.102902 3.3049e-12 2.41523e-14 6.52014e-14 -10.2786 0.731801 -0.0259123 3.31076e-12 2.62396e-14 5.725e-14 -2.22167 -0.733487 0.20892 -2.03217e-16 0.0 -3.88251e-19 0.512299 -3.13364 -0.0420885 -0.00562802 0.1231 -0.0495524 -0.492799 3.00963 0.11736 2.03217e-16 0.0 3.88251e-19 -0.473325 -3.03453 0.0397104 0.00592198 -0.0564352 0.052175 0.492505 3.09005 -0.118956
-47.2199 83.9676 -192.87 7.1718 -5.5014 2.9918 -4.33176 1.7003 -0.793901 2.99362 -0.0632089 -0.265349 -5.83125 2.28755 -1.02292 5.68844 -4.75151 -0.377708 -0.0 0.0 0.0 -0.0 0.0 0.0 -1.44556e-13 3.53073e-14 -9.55316e-14 45.4859 2.70765 -2.29394 -6.71205 -2.86584 11.2281 -0.0177795 8.00097 1.12371 2.00904e-09 -1.13831e-09 -2.52463e-10 3.4664e-09 -1.96899e-09 -4.61403e-10 2.00906e-09 -1.13832e-09 -2.52463e-10 7.73091 5.47488 0.417314 2.00904e-09 -1.13831e-09 -2.52461e-10 2.90554 0.965183 0.102902 2.00905e-09 -1.13831e-09 -2.52464e-10 10.2786 0.731801 0.0259123 2.00904e-09 -1.13831e-09 -2.52464e-10 2.22167 -0.733487 -0.20892 -1.44493e-13 3.53119e-14 -9.58639e-14 -43.7328 9.11669 -5.66628 8.49019 -4.06519 -14.0243 0.00511839 4.24502 -0.596506 2.16741e-09 4.10272e-09 1.07127e-09 3.75414e-09 7.09359e-09 1.8335e-09 2.16739e-09 4.10271e-09 1.07128e-09 -7.73091 5.47488 -0.417314 2.1674e-09 4.10271e-09 1.07127e-09 -2.90554 0.965183 -0.102902 2.1674e-09 4.10272e-09 1.07127e-09 -10.2786 0.731801 -0.0259123 2.1674e-09 4.10272e-09 1.07127e-09 -2.22167 -0.733487 0.20892 -2.03217e-16 0.0 -3.88251e-19 -1.73558 -21.0773 1.11998 -0.0411094 11.5993 0.0676871 -0.461151 3.57434 -1.59812 2.03217e-16 0.0 3.88251e-19 -6.89439 3.02032 0.738615 -0.0071122 9.6495 -0.183011 0.294651 -4.39077 -1.15145
-47.1962 84.3022 -190.59 7.313 -4.0816 1.8843 -7.60541 3.14312 -2.21144 6.17071 -0.739728 -0.621488 -10.7833 4.47727 -1.55103 9.68677 -8.19073 -0.203316 -0.0 0.0 0.0 -0.0 0.0 0.0 -2.3665e-13 5.40657e-14 -1.3736e-13 80.1472 5.85777 -4.52358 -11.1438 -4.86609 19.9648 -0.24788 14.0357 2.01343 3.0921e-09 -1.51404e-09 -2.94535e-10 5.3359e-09 -2.61875e-09 -5.47641e-10 3.09213e-09 -1.51405e-09 -2.94529e-10 7.73091 5.47488 0.417314 3.0921e-09 -1.51404e-09 -2.94532e-10 2.90554 0.965183 0.102902 3.09211e-09 -1.51404e-09 -2.94537e-10 10.2786 0.731801 0.0259123 3.0921e-09 -1.51404e-09 -2.94538e-10 2.22167 -0.733487 -0.20892 -2.36473e-13 5.40751e-14 -1.37708e-13 -77.7959 15.1812 -9.27132 13.7911 -6.78708 -25.1348 0.0735737 7.71561 -1.09103 3.2614e-09 6.13465e-09 1.83783e-09 5.65062e-09 1.06083e-08 3.14995e-09 3.26138e-09 6.13464e-09 1.83784e-09 -7.73091 5.47488 -0.417314 3.26138e-09 6.13464e-09 1.83782e-09 -2.90554 0.965183 -0.102902 3.26139e-09 6.13465e-09 1.83783e-09 -10.2786 0.731801 -0.0259123 3.2614e-09 6.13465e-09 1.83782e-09 -2.22167 -0.733487 0.20892 -2.03217e-16 0.0 -3.88251e-19 -2.86774 -34.8781 2.1336 -0.106123 20.8435 0.167614 -0.406503 4.18118 -3.04719 2.03217e-16 0.0 3.88251e-19 -11.815 7.73512 0.960126 0.0433233 17.692 -0.384925 -0.0772021 -9.61884 -2.1894
-47.4295 84.4013 -188.491 6.715 -3.6498 1.4867 -7.71547 3.79289 -6.15795 10.372 -3.4981 -1.40658 -13.7256 6.74928 -0.345142 8.6261 -7.73787 2.06178 -0.0 0.0 0.0 -0.0 0.0 0.0 -1.50711e-13 2.04423e-14 4.87955e-15 81.4763 11.1838 -6.76294 -11.6108 -5.05122 20.9926 -0.262037 14.0492 2.01763 1.065e-09 8.46336e-10 3.64235e-10 1.84167e-09 1.4652e-09 6.16277e-10 1.06502e-09 8.46329e-10 3.64231e-10 7.73091 5.47488 0.417314 1.065e-09 8.46336e-10 3.64239e-10 2.90554 0.965183 0.102902 1.06501e-09 8.46338e-10 3.64235e-10 10.2786 0.731801 0.0259123 1.065e-09 8.4634e-10 3.64237e-10 2.22167 -0.733487 -0.20892 -1.50564e-13 2.04592e-14 4.56583e-15 -88.1798 12.0732 -5.13755 14.6686 -7.28855 -27.1726 0.103321 8.89813 -1.26132 6.95805e-10 1.10806e-09 1.73067e-09 1.21513e-09 1.92529e-09 2.98979e-09 6.95781e-10 1.10804e-09 1.73068e-09 -7.73091 5.47488 -0.417314 6.95789e-10 1.10804e-09 1.73066e-09 -2.90554 0.965183 -0.102902 6.95796e-10 1.10805e-09 1.73067e-09 -10.2786 0.731801 -0.0259123 6.95807e-10 1.10805e-09 1.73066e-09 -2.22167 -0.733487 0.20892 -2.03217e-16 0.0 -3.88251e-19 -3.11779 -36.3089 1.4517 -0.130856 23.4345 0.189529 -0.351941 5.04553 -3.83296 2.03217e-16 0.0 3.88251e-19 -11.8508 8.6204 -0.531494 0.0686304 20.5862 -0.443274 -0.206065 -8.20655 -3.07095
